<?xml version="1.0" encoding="utf-8"?>
<!-- Generator: Adobe Illustrator 27.6.1, SVG Export Plug-In . SVG Version: 6.00 Build 0)  -->
<svg version="1.1" id="Layer_1" xmlns="http://www.w3.org/2000/svg" xmlns:xlink="http://www.w3.org/1999/xlink" x="0px" y="0px"
	 viewBox="0 0 1366 768" style="enable-background:new 0 0 1366 768;" xml:space="preserve">
<style type="text/css">
	.st0{fill-rule:evenodd;clip-rule:evenodd;fill:none;stroke:#000000;stroke-miterlimit:10;}
</style>
<path class="st0" d="M929.39,175c1.27,5.7,0.79,12.76-2.83,19.34c7.32,9.25,13.06,18.93,17.03,28.2
	c6.03,14.08,11.41,31.1,12.46,49.47c10.16,5.53,19.6,13.23,27.05,21.43c10.64,11.71,15.76,28.18,27.71,38.38
	c3.38-9.48,4.19-23.73,2.65-34.41c-6.25-43.34-31.49-85.51-58-119c-27.6-34.87-61.46-65.21-99-78c-1.88,0.41-3.77,0.67-5.66,0.82
	c0.83,1.98,1.3,3.86,1.28,5.55C875.21,128.48,923.17,147.03,929.39,175z"/>
<path class="st0" d="M676.55,62.86c5.23,2.59,10.44,7.4,13.29,14.35c12.87-0.03,25.01,1.72,35.49,4.77
	c15.16,4.41,32.3,11.35,47.51,22.8c10.97-4.48,23.27-6.89,34.62-7.37c14.49-0.61,29.08,4.92,43.34,3.82
	c-3.97-9.41-16.52-21.21-27.31-27.55c-37.76-22.18-86.45-28.8-129.16-29.01c-44.47-0.22-89.31,7.27-122.74,28.61
	c-0.74,1.5-1.6,2.93-2.5,4.31c2.39,0.6,4.39,1.48,5.85,2.69C606.34,75.86,650.86,50.16,676.55,62.86z"/>
<path class="st0" d="M807.45,97.41c-11.35,0.48-23.65,2.9-34.62,7.37c14.15,10.65,26.63,25.21,34.29,45.32
	c1.27,3.34,2.27,6.78,3.1,10.28c9.25-1.01,19.01-0.46,28.67,1.4c0.72-3.35,1.96-6.29,3.81-8.45c9.35-10.88,30.55-1.09,46.15,8.04
	c15.18,8.88,27.87,20.55,37.7,32.97c3.62-6.57,4.1-13.64,2.83-19.34c-6.22-27.97-54.17-46.52-77.32-68.23
	c0.02-1.69-0.44-3.57-1.28-5.55C836.53,102.33,821.94,96.8,807.45,97.41z"/>
<path class="st0" d="M429.4,191c5.32-2.5,12.38-3.58,19.65-1.43c5.36-6.08,11.01-11.39,16.69-15.78
	c14.57-11.26,33.49-22.67,55.69-27.36c2.97-13.11,9.48-26.23,17.2-36.76c8.72-11.9,22.45-19.92,30.44-32.09
	c-9.91-2.5-26.44-0.13-37.86,4.19c-40.96,15.49-76.66,49.25-103.62,82.39c-28.06,34.5-50.36,74.12-54.72,113.54
	c0.88,1.91,1.6,3.87,2.18,5.86c1.61-1.09,3.2-1.85,4.73-2.17C395.87,254.05,403.47,203.2,429.4,191z"/>
<path class="st0" d="M865.67,252.03c7.31-0.94,14.97-2.72,19.07-11.46c4.91-10.48-1.52-17.89-10.09-24.94
	c-7.42-6.11-18.95-9.73-27.02-16.81c-8.43,1.69-17.93,5.31-26.6,11.38c0.91,2,1.92,3.95,3.09,5.83
	C833.33,230.82,853.85,237.38,865.67,252.03z"/>
<path class="st0" d="M538.62,109.68c-7.72,10.54-14.23,23.66-17.2,36.76c14.54-3.07,30.48-3.27,47.54,1.38
	c5.5,1.5,10.81,3.71,16.02,6.2c0.95-1.88,2.01-3.79,3.2-5.75c5.7-9.39,13.61-17.99,22.75-25.29c-1.59-2.27-2.7-4.62-3.11-6.97
	c-2.48-14.13,18.55-24.3,35.5-30.56c15.5-5.73,31.51-8.2,46.52-8.24c-2.85-6.95-8.05-11.77-13.29-14.35
	c-25.68-12.7-70.21,13-101.64,17.42c-1.46-1.21-3.46-2.09-5.85-2.69C561.07,89.76,547.34,97.77,538.62,109.68z"/>
<path class="st0" d="M847.63,198.82c-0.62-0.54-1.22-1.1-1.79-1.68c-5.46-5.58-9.57-23.17-6.93-35.35
	c-9.66-1.86-19.42-2.41-28.67-1.4c3.95,16.69,4.01,34.8,10.8,49.8C829.69,204.12,839.2,200.51,847.63,198.82z"/>
<path class="st0" d="M412.96,555.05c-10.91-29.8-45.38-67.95-38.35-95.72c1.45-5.75,5.15-11.95,11.52-16.2
	c-0.96-6.61-1.37-13.02-1.27-19.03c0.32-18.59,3.29-40.74,13.74-61.16c-8.47-10.58-14.68-24.02-18.08-36.76
	c-3.69-13.84-1.54-29.07-5.5-42.62c-8.43,5.73-17.42,20.86-21.31,32.98c-13.37,41.7-9.17,90.66-0.02,132.38
	c9.53,43.44,26.66,85.55,54.8,113.5c1.04,0.25,2.05,0.55,3.06,0.88C411.45,560.01,411.86,557.16,412.96,555.05z"/>
<path class="st0" d="M907.23,207.68c9.41,19.07,8.99,39.84,5.35,58.72c13.59-5.57,29.24-2.13,43.46,5.61
	c-1.05-18.37-6.43-35.39-12.46-49.47c-3.97-9.27-9.71-18.95-17.03-28.2c-1.38,2.51-3.21,4.95-5.59,7.22
	C916.74,205.56,912.13,207.3,907.23,207.68z"/>
<path class="st0" d="M698.09,161.82c4.13-6.47,8.17-13.77,3.81-22.91c-4.98-10.45-14.79-10.18-25.68-8.04
	c-10.1,1.99-20.97,9.42-32.37,10.5c-4.45,8.51-7.87,19.58-8.02,31.6C655.75,172.37,675.79,155.73,698.09,161.82z"/>
<path class="st0" d="M904.04,201.91c1.17,1.9,2.23,3.83,3.19,5.78c4.9-0.38,9.51-2.12,13.73-6.13c2.38-2.26,4.21-4.7,5.59-7.22
	c-9.83-12.42-22.51-24.08-37.7-32.97c-15.59-9.12-36.8-18.92-46.15-8.04c-1.86,2.16-3.09,5.1-3.81,8.45
	C865.82,166.96,891.95,182.23,904.04,201.91z"/>
<path class="st0" d="M398.61,362.94c6.68-13.05,16.41-25.41,30.48-35.67c5.14-3.75,10.82-6.75,16.67-9.49
	c-1.22-2.55-2.36-5.3-3.4-8.28c-2.18-6.2-3.63-12.83-4.42-19.66c-5.23,0.93-10.21,0.79-13.93-1.04
	c-12.88-6.32-8.71-29.31-3.79-46.69c5.82-20.56,16.53-38.6,28.81-52.54c-7.26-2.16-14.33-1.08-19.65,1.43
	c-25.93,12.19-33.53,63.05-49.64,90.39c-1.53,0.32-3.12,1.08-4.73,2.17c3.96,13.56,1.81,28.78,5.5,42.62
	C383.93,338.93,390.15,352.36,398.61,362.94z"/>
<path class="st0" d="M884.73,240.57c-4.1,8.74-11.75,10.52-19.07,11.46c4.88,6.05,8.28,13.47,8.78,23.42
	c0.35,7.06-2.51,14.43-7.27,21.64c13.78-4.38,25.61-22.45,45.22-30.61c0.06-0.03,0.12-0.05,0.19-0.07
	c3.64-18.88,4.06-39.66-5.35-58.72c-14.27,1.11-30.93-9.44-47.18-10.02c-3.62-0.13-7.87,0.23-12.43,1.15
	c8.06,7.08,19.59,10.7,27.02,16.81C883.21,222.68,889.64,230.09,884.73,240.57z"/>
<path class="st0" d="M635.83,172.98c0.15-12.02,3.57-23.09,8.02-31.6c-0.07,0.01-0.13,0.02-0.2,0.02
	c-8.13,0.71-25.47-8.06-32.71-18.42c-9.14,7.3-17.05,15.9-22.75,25.29c-1.19,1.96-2.25,3.87-3.2,5.75
	c15.7,7.52,30.56,17.66,47.25,18.89C633.44,172.99,634.63,173.01,635.83,172.98z"/>
<path class="st0" d="M845.83,197.13c0.57,0.58,1.17,1.14,1.79,1.68c4.56-0.92,8.81-1.27,12.43-1.15
	c16.25,0.57,32.91,11.12,47.18,10.02c-0.96-1.94-2.02-3.87-3.19-5.78c-12.1-19.67-38.23-34.95-65.15-40.12
	C836.27,173.96,840.38,191.56,845.83,197.13z"/>
<path class="st0" d="M564.1,679.48c-3.74-4.51-6.55-11.05-6.31-18.59c-12.99-5.54-24.38-12.72-33.34-20.47
	c-13.03-11.26-26.95-26.22-36.07-45.13c-12.69-0.42-25.91-3.78-37.14-8.68c-14.08-6.14-25.23-18.54-39.67-23.29
	c0.36,10.18,5.83,24.56,12.04,34.18c23.74,36.8,64.24,64.62,102.29,84.03c39.62,20.2,83.03,33.69,122.49,29.68
	c4.08-3.06,8.62-5.21,13.4-6.94C631.06,696.38,581.96,700.98,564.1,679.48z"/>
<path class="st0" d="M569.07,640.18c-22.19-16.73-30.82-43.69-35.36-66.84c-2.02,3.1-4.29,6.11-6.94,8.92
	c-9.35,9.94-23.51,13.51-38.4,13.02c9.12,18.92,23.04,33.88,36.07,45.13c8.97,7.75,20.36,14.94,33.34,20.47
	c0.09-2.84,0.6-5.81,1.68-8.88C561.43,646.44,564.81,642.76,569.07,640.18z"/>
<path class="st0" d="M687.85,100.96c22.7,5.44,39.61,21.35,52.46,37.73c0.33-1.43,0.7-2.85,1.14-4.28
	c4.3-13.85,16.63-23.6,31.38-29.63c-15.21-11.45-32.34-18.39-47.51-22.8c-10.47-3.05-22.62-4.8-35.49-4.77
	c1.08,2.65,1.84,5.6,2.1,8.86C692.42,92.04,690.78,96.83,687.85,100.96z"/>
<path class="st0" d="M741.45,134.41c-0.44,1.43-0.82,2.85-1.14,4.28c3.75,4.79,7.17,9.61,10.27,14.22
	c6.68,9.93,13.97,20.96,17.12,30.83c8.05-11.62,19.83-20.5,41.13-23.21c0.46-0.06,0.93-0.1,1.4-0.15c-0.83-3.5-1.83-6.95-3.1-10.28
	c-7.67-20.11-20.15-34.67-34.29-45.32C758.08,110.8,745.75,120.56,741.45,134.41z"/>
<path class="st0" d="M497.94,226.26c-11.38-2.13-16.94,5.95-21.62,16.02c-2.94,6.33-4.08,14.43-6.32,22.06
	c3.81,9.04,10.46,19.07,20.11,26.98c10.63-13.63,11.66-35.05,23.67-49.55C511.05,234.95,507.4,228.02,497.94,226.26z"/>
<path class="st0" d="M828.06,265.95c6.88-5.3,17.52-10.07,28.18-12.57c2.83-0.66,6.09-0.92,9.43-1.35
	c-11.82-14.65-32.33-21.21-41.55-36.02c-1.17-1.88-2.19-3.83-3.09-5.83c-6.25,4.38-12.07,10.03-16.72,17.17
	c-2.2,3.37-4.24,7.29-6.13,11.52C810.41,239.94,819.47,252.6,828.06,265.95z"/>
<path class="st0" d="M679.83,99.5c2.75,0.33,5.42,0.83,8.02,1.46c2.93-4.13,4.57-8.92,4.09-14.88c-0.27-3.27-1.02-6.22-2.1-8.86
	c-15.01,0.04-31.02,2.51-46.52,8.24c-16.95,6.26-37.98,16.43-35.5,30.56c0.41,2.34,1.52,4.69,3.11,6.97
	C631.39,106.65,658.01,96.86,679.83,99.5z"/>
<path class="st0" d="M767.7,183.75c0.93,2.9,1.51,5.7,1.61,8.34c0.57,16.34-10.82,40.7-19.06,61.91
	c-6.28,16.17-20.04,44.11-10.67,61.31c7.72-11.32,12.07-24.1,19.18-37.83c7.31-14.1,20.33-35.31,33.26-38.18
	c2.14-0.48,4.19-0.59,6.16-0.42c1.9-4.23,3.94-8.14,6.13-11.52c4.65-7.13,10.47-12.79,16.72-17.17c-6.79-15-6.85-33.11-10.8-49.8
	c-0.46,0.05-0.93,0.09-1.4,0.15C787.53,163.25,775.75,172.13,767.7,183.75z"/>
<path class="st0" d="M488.38,595.27c-7.02-14.56-11.2-31.48-9.93-50.87c0.2-3.02,0.61-6.03,1.16-9.02
	c-8.41-2.93-16.64-7.31-24.3-12.73c-1.98,2.62-4.23,4.7-6.73,5.87c-12.98,6.1-28.32-11.51-38.81-26.22
	c-13.29-18.63-20.83-39.82-23.63-59.18c-6.37,4.25-10.07,10.45-11.52,16.2c-7.03,27.78,27.44,65.92,38.35,95.72
	c-1.1,2.11-1.51,4.96-1.4,8.24c14.44,4.76,25.59,17.15,39.67,23.29C462.47,591.49,475.69,594.85,488.38,595.27z"/>
<path class="st0" d="M526.77,582.26c2.65-2.81,4.92-5.82,6.94-8.92c-0.45-2.28-0.86-4.52-1.24-6.71
	c-1.98-11.47-4.06-24.14-3.11-34.3c-11.96,7.1-26.2,10.22-46.44,4.14c-1.11-0.33-2.22-0.7-3.32-1.08c-0.55,3-0.96,6-1.16,9.02
	c-1.27,19.39,2.91,36.3,9.93,50.87C503.27,595.76,517.43,592.2,526.77,582.26z"/>
<path class="st0" d="M701.9,138.91c4.36,9.13,0.32,16.43-3.81,22.91c3.87,1.06,7.81,2.8,11.83,5.43c8.84,5.79,14,17.75,16.8,31.5
	c1.36-0.63,2.61-1.4,3.73-2.34c13.54-11.28,4.52-34.4,9.86-57.72c-12.85-16.38-29.76-32.28-52.46-37.73
	c-8.21,11.58-26.61,17.94-37.15,30.11c-2.35,2.72-4.72,6.22-6.85,10.3c11.4-1.07,22.28-8.51,32.37-10.5
	C687.12,128.73,696.92,128.47,701.9,138.91z"/>
<path class="st0" d="M730.45,196.41c-1.12,0.94-2.37,1.7-3.73,2.34c2.99,14.69,3.27,31.42,2.4,44.84
	c-0.38,5.79-1.37,12.84-2.69,20.23c13.18-9.95,17.09-28.39,23.26-42.02c5.98-13.2,10.28-26.89,18.01-38.05
	c-3.16-9.87-10.44-20.91-17.12-30.83c-3.11-4.61-6.52-9.44-10.27-14.22C734.97,162.01,743.99,185.13,730.45,196.41z"/>
<path class="st0" d="M488.23,293.56c0.67-0.72,1.29-1.47,1.89-2.24c-9.65-7.91-16.31-17.94-20.11-26.98
	c-1.08,3.68-2.42,7.25-4.36,10.46c-3.53,5.85-16.23,13.01-27.69,15.04c0.79,6.83,2.24,13.46,4.42,19.66
	c1.05,2.99,2.19,5.74,3.4,8.28C460.95,310.67,477.28,305.35,488.23,293.56z"/>
<path class="st0" d="M857.74,297.76c3.31,0.6,6.42,0.29,9.43-0.67c4.76-7.21,7.62-14.57,7.27-21.64c-0.5-9.96-3.9-17.38-8.78-23.42
	c-3.34,0.43-6.6,0.68-9.43,1.35c-10.66,2.5-21.29,7.27-28.18,12.57C837.36,280.4,846.11,295.64,857.74,297.76z"/>
<path class="st0" d="M643.65,141.4c0.07-0.01,0.13-0.02,0.2-0.02c2.13-4.08,4.5-7.58,6.85-10.3c10.53-12.18,28.93-18.53,37.15-30.11
	c-2.6-0.62-5.27-1.12-8.02-1.46c-21.82-2.65-48.44,7.14-68.9,23.48C618.18,133.34,635.52,142.11,643.65,141.4z"/>
<path class="st0" d="M726.43,263.82c-1.68,9.4-3.9,19.36-6.08,27.99c-4.35,17.19-10.17,33.07-8.9,46.79
	c9.14-3.69,17.86-10.02,25.07-19.11c1.09-1.37,2.1-2.77,3.07-4.19c-9.37-17.2,4.39-45.15,10.67-61.31
	c8.24-21.21,19.63-45.57,19.06-61.91c-0.09-2.64-0.68-5.44-1.61-8.34c-7.73,11.16-12.04,24.85-18.01,38.05
	C743.52,235.43,739.61,253.87,726.43,263.82z"/>
<path class="st0" d="M923.4,601.16c-25.89,18.36-53.63,61.65-82.28,62.16c-5.86,0.11-12.72-1.79-18.46-6.69
	c-12.38,6.64-25.06,11.02-36.66,13.18c-17.69,3.29-39.13,4.81-60.51-0.68c-8.49,10.06-19.94,18.59-31.31,24.39
	c-10.09,5.15-21.8,6.91-32.4,10.74c0.77,0.2,1.53,0.39,2.27,0.61c4.33,8.73,25.42,15.53,40.55,16.39
	c43.72,2.49,90.06-13.85,128.16-33.17c39.66-20.11,76.14-47.25,96.14-81.5c-0.03-1.89,0.09-3.75,0.31-5.6
	C927.05,601.44,925.08,601.53,923.4,601.16z"/>
<path class="st0" d="M774.29,587.4c-0.68,7.32-0.59,15.14,7.01,21.02c9.15,7.09,17.79,2.44,26.55-4.38
	c8.17-6.36,14.56-18,24.36-24.06c0.55-0.34,1.19-0.65,1.89-0.94c0.1-8.42-1.41-18.28-5.39-27.88c-2.9,0.51-5.76,1.23-8.55,2.23
	C803.12,559.53,792.23,579.44,774.29,587.4z"/>
<path class="st0" d="M816.78,649.77c-2.88-4.6-3.75-9.16-3.36-13.71c-27.79,8.69-55.02-1.46-76.62-13c0.87,3,1.56,6.11,1.97,9.33
	c1.69,13.05-4.05,25.8-13.28,36.74c21.39,5.49,42.83,3.96,60.51,0.68c11.6-2.15,24.27-6.54,36.66-13.18
	C820.51,654.78,818.5,652.52,816.78,649.77z"/>
<path class="st0" d="M807.85,604.05c-8.76,6.82-17.4,11.47-26.55,4.38c-7.6-5.89-7.69-13.71-7.01-21.02
	c-6.48,2.88-13.88,4.19-22.81,2.74c-10.07-1.64-19.36-9.93-27.32-20.79c-0.45,0.67-0.86,1.36-1.21,2.09
	c-7.06,14.75,7.79,30.68,13.85,51.62c21.6,11.54,48.83,21.69,76.62,13c1.23-14.53,15.43-29.03,19.32-45.21
	c0.81-3.37,1.3-7.39,1.35-11.81c-0.7,0.29-1.33,0.6-1.89,0.94C822.41,586.05,816.02,597.69,807.85,604.05z"/>
<path class="st0" d="M465.97,204.93c17.92-15.21,40.52-19.1,61.39-19.12c-0.35-0.49-0.71-0.98-1.05-1.48
	c-7.22-10.67-7.96-24.27-4.88-37.89c-22.2,4.69-41.12,16.1-55.69,27.36c-5.68,4.39-11.34,9.7-16.69,15.78
	c2.7,0.8,5.43,2.04,8.11,3.83C461.79,196.53,464.48,200.46,465.97,204.93z"/>
<path class="st0" d="M796.63,523.39c-0.64,13.41-12.85,20.05-27.25,25.14c3.41,7.83,5.56,18.78,5.66,29.29
	c0.03,2.93-0.45,6.2-0.76,9.58c17.94-7.96,28.83-27.87,45.86-34c2.79-1,5.65-1.72,8.55-2.23c-3.06-7.37-7.56-14.58-13.93-20.86
	c-5.1-5.03-11.98-9.92-19.39-14.49C796.28,518.46,796.75,521,796.63,523.39z"/>
<path class="st0" d="M526.31,184.33c0.34,0.5,0.69,0.99,1.05,1.48c7.55-0.01,14.88,0.49,21.66,1.14c10.41,0.99,21.77,2.17,30.91,5
	c-2.79-11.27-2.26-23.47,5.06-37.93c-5.22-2.5-10.52-4.71-16.02-6.2c-17.06-4.64-33-4.45-47.54-1.38
	C518.34,160.06,519.08,173.66,526.31,184.33z"/>
<path class="st0" d="M724.16,569.35c7.96,10.86,17.25,19.15,27.32,20.79c8.94,1.45,16.33,0.14,22.81-2.74
	c0.31-3.38,0.79-6.66,0.76-9.58c-0.1-10.51-2.25-21.46-5.66-29.29C752.02,554.67,731.46,558.55,724.16,569.35z"/>
<path class="st0" d="M445.95,431.74c-8.77,7.55-5.94,16.94-1,26.89c2.59,5.21,6.91,10.2,10.92,15.49c9.47,3.02,21.78,4.46,34.4,2.03
	c-2.7-16.19-17.07-30.04-22.11-47.03C461.06,426.97,453.3,425.41,445.95,431.74z"/>
<path class="st0" d="M506.78,432.07c-8.32,1.73-19.37,1.63-29.59-0.35c-2.82-0.54-5.86-1.63-9.04-2.59
	c5.04,16.99,19.41,30.84,22.11,47.03c6.58-1.27,13.23-3.59,19.61-7.29c3.78-2.19,7.67-5.05,11.58-8.28
	C512.05,455.92,508.59,444.77,506.78,432.07z"/>
<path class="st0" d="M685.55,198.64c0.31-8.66,3.36-19.82,8.16-29.58c1.15-2.33,2.77-4.72,4.38-7.24
	c-22.3-6.09-42.34,10.55-62.26,11.16c-0.08,6.52,0.8,13.32,3.02,20.13c1.43,4.4,3.56,9.08,6.08,13.85
	C652.75,195.82,668.92,196.63,685.55,198.64z"/>
<path class="st0" d="M698.67,269.66c-0.2-20.75-13.64-47.8-13.14-70.46c0-0.19,0.02-0.38,0.02-0.57
	c-16.64-2.01-32.8-2.82-40.62,8.32c6.62,12.51,16.03,25.64,23.4,35.95C675.51,252.97,684.96,266.05,698.67,269.66z"/>
<path class="st0" d="M462.84,207.72c1.02-0.98,2.07-1.9,3.12-2.79c-1.48-4.47-4.17-8.41-8.82-11.52c-2.68-1.8-5.41-3.03-8.11-3.83
	c-12.28,13.94-22.98,31.97-28.81,52.54c-4.92,17.38-9.09,40.37,3.79,46.69c3.72,1.83,8.69,1.97,13.93,1.04
	C434.48,259.68,444.1,225.64,462.84,207.72z"/>
<path class="st0" d="M552.38,429.59c6.98-7.65,15.68-17.29,18.72-28.53c-19.5,6.31-41.35,25.33-62.67,30.63
	c-0.54,0.13-1.09,0.26-1.65,0.38c1.81,12.7,5.27,23.85,14.67,28.51C532.52,451.43,543.66,439.15,552.38,429.59z"/>
<path class="st0" d="M579.92,191.95c4.38,1.36,8.25,3.1,11.25,5.39c12.99,9.93,24.58,34.19,35.75,54.02
	c8.62,15.31,21.7,44.22,41.36,47.29c-3.72-13.3-10.81-24.89-16.83-39.24c-6.14-14.65-14.09-38.23-8-50
	c0.45-0.88,0.95-1.69,1.48-2.45c-2.52-4.77-4.65-9.45-6.08-13.85c-2.22-6.81-3.1-13.61-3.02-20.13c-1.2,0.04-2.39,0.02-3.59-0.07
	c-16.69-1.22-31.55-11.36-47.25-18.89C577.67,168.48,577.13,180.68,579.92,191.95z"/>
<path class="st0" d="M684.49,295.38c10.83-5.87,14.29-14.95,14.19-25.72c-13.71-3.62-23.16-16.69-30.34-26.76
	c-7.36-10.32-16.78-23.45-23.4-35.95c-0.53,0.76-1.03,1.58-1.48,2.45c-6.09,11.77,1.86,35.35,8,50
	c6.02,14.35,13.11,25.94,16.83,39.24C673.25,299.43,678.64,298.55,684.49,295.38z"/>
<path class="st0" d="M725.49,669.12c-14.85-3.81-29.67-11-43.19-23.34c-2.25-2.06-4.36-4.28-6.38-6.6
	c-8.96,5.64-19.38,9.79-30.27,12.39c0.37,2.44,0.34,4.76-0.2,6.84c-3.63,13.88-26.99,14.37-45,13
	c-15.26-1.16-29.75-5.03-42.66-10.53c-0.25,7.54,2.56,14.09,6.31,18.59c17.86,21.51,66.96,16.9,97.68,24.78
	c10.6-3.83,22.31-5.59,32.4-10.74C705.55,687.71,717,679.19,725.49,669.12z"/>
<path class="st0" d="M575.17,644.31c-2.14-1.29-4.17-2.68-6.1-4.13c-4.27,2.58-7.65,6.26-9.6,11.83c-1.08,3.07-1.59,6.04-1.68,8.88
	c12.91,5.5,27.4,9.37,42.66,10.53c18.01,1.37,41.37,0.88,45-13c0.54-2.08,0.57-4.4,0.2-6.84
	C620.82,657.5,593.51,655.36,575.17,644.31z"/>
<path class="st0" d="M738.77,632.39c-0.42-3.22-1.1-6.33-1.97-9.33c-2.89-1.54-5.68-3.1-8.35-4.65
	c-8.45-4.89-17.59-10.27-24.56-16.15c-2.56,12.39-9.34,24.16-25.14,35.06c-0.92,0.64-1.87,1.26-2.83,1.86
	c2.01,2.32,4.12,4.54,6.38,6.6c13.52,12.34,28.34,19.53,43.19,23.34C734.72,658.19,740.46,645.44,738.77,632.39z"/>
<path class="st0" d="M722.95,571.44c0.35-0.73,0.75-1.42,1.21-2.09c-9.09-12.4-16.44-28.15-21.25-41.16c-0.68-1.85-1.36-3.87-2.02-6
	c-0.85,11.29,1.71,23.2,2.25,33.56c0.84,16.07,3.8,31.73,0.75,46.52c6.97,5.88,16.12,11.26,24.56,16.15
	c2.67,1.55,5.46,3.11,8.35,4.65C730.74,602.12,715.89,586.2,722.95,571.44z"/>
<path class="st0" d="M497.94,226.26c9.46,1.77,13.1,8.69,15.85,15.51c4.39-5.29,10.23-9.67,18.56-12.39
	c10.02-3.28,22.57,0.15,35.03,6.54c0.34-1.42,0.51-2.85,0.48-4.27c-0.37-18.26-25.8-25.54-40.51-45.83
	c-20.87,0.02-43.47,3.91-61.39,19.12c4.55,13.73-2.31,32.57,0.73,48.76c0.6,3.22,1.7,6.84,3.3,10.64
	c2.25-7.63,3.38-15.73,6.32-22.06C481,232.21,486.57,224.13,497.94,226.26z"/>
<path class="st0" d="M725.28,490.07c9.47,18.48,33.73,36.63,43.51,57.14c0.2,0.43,0.4,0.87,0.6,1.32
	c14.4-5.09,26.61-11.73,27.25-25.14c0.11-2.39-0.35-4.93-1.25-7.57c-9.9-6.1-20.76-11.64-29.67-16.21
	C754.39,493.81,739.48,486.28,725.28,490.07z"/>
<path class="st0" d="M567.86,231.64c0.03,1.43-0.14,2.85-0.48,4.27c13.36,6.85,26.62,17.11,36.57,26.19
	c4.19,3.83,8.96,8.86,13.79,14.36c0.12-16.27-11.67-30.62-18.42-43.77c-7.11-13.87-15.88-26.57-19.39-40.74
	c-9.13-2.83-20.49-4.01-30.91-5c-6.79-0.65-14.11-1.14-21.66-1.14C542.06,206.1,567.49,213.38,567.86,231.64z"/>
<path class="st0" d="M724.16,569.35c7.3-10.8,27.86-14.68,45.23-20.82c-0.2-0.45-0.39-0.89-0.6-1.32
	c-9.78-20.51-34.04-38.66-43.51-57.14c-4.03,1.08-7.99,3.06-11.81,6.25c-8.75,7.33-11.87,16.38-12.58,25.86
	c0.67,2.13,1.34,4.16,2.02,6C707.72,541.2,715.07,556.95,724.16,569.35z"/>
<path class="st0" d="M490.45,477.41c-0.05-0.42-0.12-0.84-0.19-1.25c-12.62,2.43-24.93,0.99-34.4-2.03
	c3.12,4.13,6.05,8.44,7.8,13.17c2.73,7.39-0.82,25.39-8.35,35.37c7.65,5.41,15.88,9.79,24.3,12.73
	C483.2,515.76,492.9,496.59,490.45,477.41z"/>
<path class="st0" d="M529.37,532.33c0.31-3.35,0.96-6.43,2.05-9.11c6.17-15.14,26.53-32.71,42.73-48.69
	c13.39-13.21,40.48-35.46,33.88-56.51c-12.6,6.52-22.54,16.19-35.56,25.39c-12.97,9.17-34.28,22.03-47.08,18.64
	c-1.41-0.38-2.72-0.87-3.93-1.47c-3.91,3.23-7.8,6.08-11.58,8.28c-6.38,3.7-13.03,6.02-19.61,7.29c0.07,0.42,0.13,0.83,0.19,1.25
	c2.45,19.19-7.25,38.35-10.84,57.98c1.11,0.38,2.21,0.75,3.32,1.08C503.17,542.55,517.41,539.43,529.37,532.33z"/>
<path class="st0" d="M726.72,198.75c-2.8-13.75-7.96-25.71-16.8-31.5c-4.02-2.63-7.96-4.37-11.83-5.43
	c-1.61,2.52-3.23,4.92-4.38,7.24c-4.8,9.76-7.86,20.92-8.16,29.58C700.96,200.5,716.78,203.38,726.72,198.75z"/>
<path class="st0" d="M726.72,198.75c-9.94,4.64-25.75,1.75-41.17-0.11c-0.01,0.19-0.02,0.38-0.02,0.57
	c-0.5,22.66,12.94,49.71,13.14,70.46c4.39,1.16,9.22,1.36,14.55,0.16c5.26-1.18,9.58-3.27,13.21-6.01
	c1.32-7.39,2.31-14.43,2.69-20.23C729.98,230.17,729.71,213.44,726.72,198.75z"/>
<path class="st0" d="M465.64,274.8c1.94-3.21,3.28-6.78,4.36-10.46c-1.6-3.8-2.7-7.43-3.3-10.64c-3.04-16.19,3.82-35.03-0.73-48.76
	c-1.06,0.9-2.1,1.82-3.12,2.79c-18.75,17.91-28.37,51.96-24.89,82.11C449.41,287.8,462.11,280.65,465.64,274.8z"/>
<path class="st0" d="M571.1,401.06c-3.04,11.25-11.75,20.89-18.72,28.53c-8.72,9.56-19.86,21.83-30.92,30.99
	c1.21,0.6,2.51,1.09,3.93,1.47c12.8,3.39,34.11-9.47,47.08-18.64c13.02-9.2,22.96-18.87,35.56-25.39c-1.12-3.59-3.22-7.14-6.53-10.6
	C592.48,397.99,582.17,397.48,571.1,401.06z"/>
<path class="st0" d="M617.73,276.46c6.4,7.29,12.91,15.39,18.38,22.62c10.92,14.43,19.81,29.2,31.67,36.65
	c3.26-9.58,4.1-20.63,1.67-32.33c-0.34-1.62-0.74-3.2-1.17-4.76c-19.65-3.07-32.74-31.98-41.36-47.29
	c-11.16-19.83-22.76-44.09-35.75-54.02c-3-2.29-6.87-4.03-11.25-5.39c3.51,14.18,12.28,26.88,19.39,40.74
	C606.06,245.85,617.86,260.2,617.73,276.46z"/>
<path class="st0" d="M667.78,335.73c0.17,0.1,0.33,0.22,0.5,0.32c12.43,7.55,28.36,8.52,43.17,2.55c-1.27-13.73,4.55-29.6,8.9-46.79
	c2.18-8.63,4.4-18.59,6.08-27.99c-3.62,2.73-7.94,4.83-13.21,6.01c-5.33,1.19-10.16,1-14.55-0.16c0.11,10.77-3.35,19.84-14.19,25.72
	c-5.85,3.17-11.24,4.05-16.21,3.27c0.44,1.56,0.84,3.14,1.17,4.76C671.88,315.11,671.04,326.16,667.78,335.73z"/>
<path class="st0" d="M1012.18,332.98c-0.48-0.37-0.92-0.77-1.38-1.16c-1.36,3.82-3.14,6.87-5.35,8.59c-2.5,31.64,12.96,80.68-5,103
	c-3.66,4.54-9.47,8.58-16.86,9.86c-2.69,11.79-6.77,22.58-11.66,31.65c-7.18,13.32-16.99,27.92-30.46,40.08
	c1.97,11.29,1.84,23.34,0.11,34.16c-2.29,14.36-10.65,27.59-12.38,41.83c10-2.06,24-11.97,32.33-21.25
	c29.27-32.57,45.47-78.96,54.2-120.78C1024.82,415.44,1026.42,370,1012.18,332.98z"/>
<path class="st0" d="M983.09,293.44c-7.45-8.19-16.88-15.9-27.05-21.43c1.04,18.18-2.16,37.68-13.18,56.98
	c-2,3.5-4.33,6.82-6.84,10.03c0.1,0.09,0.19,0.18,0.29,0.27c7.37,7.09,13.65,15.92,18.62,25.59c2.87-1.34,5.72-2.09,8.38-1.99
	c14.34,0.54,19.87,23.24,22.43,41.12c2.46,17.12,1.32,34.03-2.15,49.26c7.39-1.28,13.21-5.32,16.86-9.86
	c17.96-22.32,2.5-71.36,5-103c2.21-1.72,3.99-4.77,5.35-8.59C998.85,321.62,993.73,305.15,983.09,293.44z"/>
<path class="st0" d="M900.4,442.35c5.28,5.12,11.42,9.96,20.78,7.73c11.26-2.68,13.06-12.32,13.24-23.42
	c0.16-9.8-4.35-21.33-3.62-32.23c-6.85-5.75-16.05-11.11-26.72-14.02c-0.5,1.16-0.96,2.34-1.37,3.55
	C896.77,401.5,906.13,423,900.4,442.35z"/>
<path class="st0" d="M930.8,394.43c0.04-0.61,0.09-1.22,0.17-1.82c0.98-7.88,12.6-22.43,23.96-27.71
	c-4.96-9.67-11.25-18.5-18.62-25.59c-0.1-0.09-0.19-0.18-0.29-0.27c-10.89,13.93-25.25,25.79-31.94,41.38
	C914.75,383.32,923.96,388.68,930.8,394.43z"/>
<path class="st0" d="M974.45,453.41c-5.86-0.81-10.15-3.4-13.53-7.08c-9.18,19.14-25.77,31.72-42.81,40.62
	c0.11,0.06,0.22,0.12,0.34,0.18c13.05,7.15,20.2,21.73,23.02,37.88c13.46-12.17,23.28-26.77,30.46-40.08
	c4.89-9.08,8.98-19.86,11.66-31.65C980.76,453.76,977.71,453.86,974.45,453.41z"/>
<path class="st0" d="M985.74,404.01c-2.57-17.88-8.1-40.58-22.43-41.12c-2.66-0.1-5.51,0.65-8.38,1.99
	c12.29,23.96,16.48,53.16,8.9,74.51c-0.86,2.4-1.83,4.71-2.9,6.93c3.38,3.68,7.67,6.28,13.53,7.08c3.26,0.45,6.31,0.35,9.14-0.14
	C987.05,438.05,988.19,421.14,985.74,404.01z"/>
<path class="st0" d="M930.8,394.43c-0.73,10.9,3.79,22.43,3.62,32.23c-0.19,11.1-1.99,20.74-13.24,23.42
	c-9.36,2.23-15.5-2.61-20.78-7.73c-1.89,6.38-5.42,12.53-11.68,18.22c-5.96,5.42-14.86,7.87-24.96,8.4
	c11.26,10.32,34.42,7.22,54.36,17.98c17.04-8.91,33.63-21.49,42.81-40.62c-9.63-10.5-11.83-29.94-21.47-42.92
	C937.29,400.5,934.36,397.41,930.8,394.43z"/>
<path class="st0" d="M930.97,392.6c-0.08,0.61-0.12,1.21-0.17,1.82c3.56,2.99,6.49,6.08,8.65,8.98
	c9.65,12.97,11.84,32.42,21.47,42.92c1.07-2.22,2.04-4.52,2.9-6.93c7.58-21.35,3.4-50.55-8.9-74.51
	C943.56,370.18,931.95,384.72,930.97,392.6z"/>
<path class="st0" d="M412.65,441.87c2.87-23.55,16.86-43.68,30.3-59.45c-3.9,0.4-7.91,0.53-12.01,0.19
	c-12.72-1.06-23.7-8.88-32.33-19.67c-10.45,20.42-13.42,42.57-13.74,61.16c-0.1,6.01,0.31,12.42,1.27,19.03
	c2.3-1.53,4.93-2.82,7.95-3.72C401.13,437.29,407.12,438.68,412.65,441.87z"/>
<path class="st0" d="M912.58,266.41c-1.65,8.54-3.95,16.69-6.3,24.12c-3.42,10.81-7.28,22.67-12.58,31.22
	c13.6-0.71,27.42,3.07,42.32,17.29c2.51-3.21,4.84-6.53,6.84-10.03c11.02-19.29,14.22-38.8,13.18-56.98
	C941.82,264.28,926.17,260.84,912.58,266.41z"/>
<path class="st0" d="M865.98,421.51c8.44,2.08,18.82,7.44,27.44,14.25c2.29,1.81,4.54,4.23,6.98,6.6
	c5.73-19.35-3.63-40.85,2.31-58.39c0.41-1.21,0.87-2.39,1.37-3.55c-7-1.91-14.62-2.78-22.63-2c-3.99,0.39-8.3,1.24-12.77,2.39
	C875.5,391.13,871.09,406.32,865.98,421.51z"/>
<path class="st0" d="M893.7,321.74c-1.93,3.12-4.05,5.81-6.42,7.82c-12.44,10.61-38.59,16.86-60.32,23.62
	c-16.48,5.12-46.69,11.7-54.51,29.53c13.62-1.06,26.29-5.64,41.4-8.66c15.58-3.11,40.27-6.2,50.59,2.11
	c1.74,1.4,3.13,2.95,4.24,4.63c4.46-1.15,8.78-2,12.77-2.39c8.01-0.78,15.63,0.09,22.63,2c6.69-15.59,21.05-27.45,31.94-41.38
	C921.12,324.81,907.3,321.03,893.7,321.74z"/>
<path class="st0" d="M430.95,382.61c4.1,0.34,8.1,0.21,12.01-0.19c1.26-1.48,2.52-2.92,3.76-4.33
	c10.26-11.58,22.07-24.65,33.22-27.95c1.93-0.57,4.02-1,6.24-1.3c-16.25-3.99-30.83-11.04-40.41-31.07
	c-5.85,2.74-11.54,5.75-16.67,9.49c-14.07,10.26-23.8,22.62-30.48,35.67C407.25,373.74,418.23,381.55,430.95,382.61z"/>
<path class="st0" d="M867.18,297.09c-9.95,15.06-28.25,29.42-43.12,38.85c-2.53,1.6-5.44,3.27-8.57,4.96
	c12.44-0.68,24.91-6.36,36.02-9.23c14.47-3.74,28.22-9.2,42.2-9.93c5.3-8.55,9.16-20.4,12.58-31.22c2.35-7.43,4.65-15.58,6.3-24.12
	c-0.06,0.03-0.12,0.04-0.19,0.07C892.79,274.64,880.95,292.71,867.18,297.09z"/>
<path class="st0" d="M865.98,421.51c-5.43,16.11-11.65,32.21-6.1,42.51c1.05,1.94,2.36,3.57,3.88,4.96c10.1-0.53,19-2.98,24.96-8.4
	c6.26-5.69,9.79-11.84,11.68-18.22c-2.44-2.36-4.69-4.78-6.98-6.6C884.8,428.95,874.42,423.58,865.98,421.51z"/>
<path class="st0" d="M815.48,340.9c-10.68,5.76-24.15,11.77-35.56,16.35c-15.65,6.29-31.12,10.8-41.5,19.06
	c8.22,4.22,17.95,6.68,28.73,6.63c1.79-0.01,3.55-0.09,5.3-0.23c7.82-17.83,38.04-24.41,54.51-29.53
	c21.73-6.75,47.88-13.01,60.32-23.62c2.37-2.02,4.48-4.71,6.42-7.82c-13.98,0.73-27.73,6.19-42.2,9.93
	C840.39,334.54,827.92,340.22,815.48,340.9z"/>
<path class="st0" d="M581.49,579.8c-6.14,4.04-12.19,8.99-12.04,18.61c0.18,11.57,9.2,15.42,20,18c10.07,2.41,23.15,0.13,34,4
	c0.64,0.23,1.32,0.55,2.02,0.95c6.72-5.24,13.57-12.7,18.6-21.97c-2.07-1.77-4.26-3.39-6.6-4.82
	C621.79,585.02,599.05,589.27,581.49,579.8z"/>
<path class="st0" d="M589.45,616.41c-10.8-2.58-19.82-6.43-20-18c-0.15-9.61,5.91-14.57,12.04-18.61
	c-6.01-3.24-11.42-8.09-15.73-15.66c-4.86-8.55-4.44-20.42-1.3-32.92c-0.21,0.04-0.42,0.08-0.63,0.13
	c-15.45,3.8-18.6,24.33-30.12,41.99c4.55,23.15,13.17,50.11,35.36,66.84c12.2-7.37,31.72-5.65,46.36-12.53
	c3.13-1.47,6.56-3.59,10.03-6.3c-0.7-0.39-1.37-0.72-2.02-0.95C612.6,616.54,599.52,618.82,589.45,616.41z"/>
<path class="st0" d="M647.73,557.79c-11.34,8.44-25.02,2.21-38.8-6.38c-3.95,7.62-11.24,16.26-19.49,22.99
	c-2.27,1.85-5.12,3.52-7.96,5.39c17.56,9.47,40.3,5.22,55.97,14.77c2.34,1.43,4.53,3.05,6.6,4.82c3.76-6.92,6.5-14.84,7.41-23.6
	c0.66-6.31,0.35-13.64-0.46-21.24C650,555.81,648.92,556.91,647.73,557.79z"/>
<path class="st0" d="M564.47,531.22c-3.14,12.5-3.56,24.36,1.3,32.92c4.3,7.57,9.71,12.42,15.73,15.66
	c2.84-1.87,5.69-3.54,7.96-5.39c8.25-6.73,15.54-15.37,19.49-22.99C593.13,541.57,577.18,528.64,564.47,531.22z"/>
<path class="st0" d="M535.76,274c-6.57-5.41-13.42-14.12-18.27-23.37c-1.36-2.59-2.43-5.71-3.7-8.86
	c-12.02,14.5-13.04,35.92-23.67,49.55c5.08,4.16,10.99,7.74,17.76,10.27c4.43,1.65,9.54,2.92,14.98,3.92
	C519.31,294.44,526.3,284.05,535.76,274z"/>
<path class="st0" d="M781.78,320.94c15.83-13.37,28.19-40.8,45.96-54.75c0.1-0.08,0.21-0.16,0.32-0.24
	c-8.59-13.35-17.65-26.01-29.88-27.07c-6,13.36-10.57,29.88-14.15,42.68C780.78,293.15,776.66,308.2,781.78,320.94z"/>
<path class="st0" d="M600.64,305.14c-17.05-11.53-45.96-16.67-63.61-30.14c-0.42-0.32-0.84-0.66-1.27-1.01
	c-9.46,10.05-16.44,20.44-12.91,31.51c13.83,2.55,29.8,3.35,42.35,4C576.03,310.07,589.75,310.71,600.64,305.14z"/>
<path class="st0" d="M752.76,326.42c11.48,4.67,20.73,1.52,29.03-5.48c-5.13-12.74-1.01-27.79,2.24-39.38
	c3.58-12.81,8.16-29.33,14.15-42.68c-1.97-0.17-4.01-0.05-6.16,0.42c-12.93,2.87-25.95,24.08-33.26,38.18
	c-7.11,13.72-11.46,26.51-19.18,37.83C742.1,319.93,746.29,323.79,752.76,326.42z"/>
<path class="st0" d="M412.74,459.98c-0.83-6.23-0.8-12.27-0.09-18.1c-5.53-3.19-11.52-4.59-18.56-2.46
	c-3.02,0.91-5.65,2.19-7.95,3.72c2.81,19.37,10.34,40.56,23.63,59.18c10.49,14.71,25.83,32.32,38.81,26.22
	c2.49-1.17,4.74-3.25,6.73-5.87C433.13,506.98,415.77,482.65,412.74,459.98z"/>
<path class="st0" d="M563.83,531.35c0.21-0.05,0.42-0.09,0.63-0.13c3.84-15.27,11.74-31.48,19.08-43.77
	c1.18-1.98,2.55-4.09,4.04-6.29c-9.78,6.39-17.72,16.24-25.73,23.37c-11,9.79-20.62,20.75-32.49,27.8
	c-0.95,10.16,1.13,22.83,3.11,34.3c0.38,2.19,0.79,4.43,1.24,6.71C545.23,555.68,548.38,535.15,563.83,531.35z"/>
<path class="st0" d="M626.91,480.73c-8.53,18.94-7.55,49.23-17.46,69.67c-0.16,0.33-0.34,0.67-0.51,1.01
	c13.78,8.58,27.46,14.82,38.8,6.38c1.18-0.88,2.27-1.98,3.28-3.24c-1.34-12.44-4.06-25.6-6.23-36.25
	C642.23,505.82,638.79,489.44,626.91,480.73z"/>
<path class="st0" d="M564.47,531.22c12.71-2.58,28.66,10.35,44.47,20.2c0.18-0.34,0.35-0.68,0.51-1.01
	c9.91-20.45,8.93-50.74,17.46-69.67c-3.35-2.45-7.36-4.29-12.21-5.27c-10.75-2.16-19.48,0.71-27.11,5.7
	c-1.49,2.2-2.86,4.31-4.04,6.29C576.2,499.73,568.3,515.95,564.47,531.22z"/>
<path class="st0" d="M486.18,348.85c15.87-2.17,38.64,1.9,58.47,4.23c18.6,2.19,52.7,9.38,65.14-8.65
	c-12.97-5.71-26.73-7.39-42.05-11.75c-15.28-4.35-38.66-12.88-44.05-24.98c-0.33-0.74-0.6-1.47-0.83-2.21
	c-5.44-1-10.55-2.27-14.98-3.92c-6.77-2.52-12.68-6.1-17.76-10.27c-0.6,0.77-1.22,1.52-1.89,2.24
	c-10.95,11.79-27.27,17.12-42.45,24.22C455.35,337.81,469.92,344.86,486.18,348.85z"/>
<path class="st0" d="M867.18,297.09c-3.02,0.96-6.13,1.27-9.43,0.67c-11.64-2.12-20.39-17.36-29.69-31.81
	c-0.1,0.08-0.21,0.16-0.32,0.24c-17.77,13.95-30.12,41.38-45.96,54.75c1.82,4.53,4.81,8.78,9.44,12.46
	c7.8,6.22,16.02,7.95,24.26,7.5c3.14-1.69,6.04-3.36,8.57-4.96C838.93,326.51,857.22,312.15,867.18,297.09z"/>
<path class="st0" d="M600.64,305.14c-10.88,5.57-24.61,4.93-35.44,4.37c-12.55-0.65-28.52-1.45-42.35-4
	c0.23,0.73,0.5,1.47,0.83,2.21c5.39,12.1,28.77,20.62,44.05,24.98c15.32,4.36,29.08,6.04,42.05,11.75c2.18-3.16,3.7-7.08,4.35-11.94
	C615.83,319.79,610.04,311.5,600.64,305.14z"/>
<path class="st0" d="M711.44,338.6c0.04,0.48,0.07,0.96,0.13,1.43c1.96,15.05,11.89,28.6,26.84,36.28
	c10.38-8.26,25.85-12.77,41.5-19.06c11.41-4.58,24.88-10.59,35.56-16.35c-8.24,0.45-16.46-1.28-24.26-7.5
	c-4.63-3.69-7.61-7.93-9.44-12.46c-8.29,7-17.54,10.15-29.03,5.48c-6.47-2.63-10.66-6.49-13.18-11.11
	c-0.97,1.42-1.98,2.82-3.07,4.19C729.3,328.58,720.58,334.91,711.44,338.6z"/>
<path class="st0" d="M941.47,525.01c-13.66,12.35-31.07,22.18-53.31,25.61c-3.86,0.6-7.78,0.84-11.72,0.89
	c-0.92,9.87-3.74,19.95-7.97,29.59c2.99,1.42,5.5,3.22,7.15,5.45c8.57,11.5-5.63,30.05-17.95,43.27
	c-10.48,11.24-22.6,20.17-35.01,26.82c5.73,4.91,12.6,6.8,18.46,6.69c28.65-0.51,56.39-43.8,82.28-62.16
	c1.69,0.37,3.66,0.28,5.81-0.16c1.72-14.24,10.09-27.46,12.38-41.83C943.3,548.35,943.44,536.29,941.47,525.01z"/>
<path class="st0" d="M828.7,551.17c3.98,9.6,5.49,19.46,5.39,27.88c7.78-3.18,24.03-2.88,34.38,2.04
	c4.23-9.63,7.05-19.72,7.97-29.59C860.39,551.7,843.88,548.5,828.7,551.17z"/>
<path class="st0" d="M815.45,635.41c-0.68,0.23-1.35,0.44-2.03,0.65c-0.39,4.55,0.48,9.1,3.36,13.71c1.72,2.76,3.73,5.02,5.88,6.86
	c12.41-6.66,24.54-15.58,35.01-26.82c12.32-13.22,26.52-31.76,17.95-43.27c-1.65-2.22-4.16-4.02-7.15-5.45
	C857.52,606,837.1,627.92,815.45,635.41z"/>
<path class="st0" d="M834.09,579.05c-0.05,4.42-0.54,8.44-1.35,11.81c-3.89,16.17-18.09,30.68-19.32,45.21
	c0.68-0.21,1.35-0.42,2.03-0.65c21.65-7.49,42.08-29.4,53.02-54.32C858.12,576.17,841.87,575.87,834.09,579.05z"/>
<path class="st0" d="M918.45,487.12c-0.11-0.06-0.23-0.12-0.34-0.18c-7.41,3.88-14.9,7.06-21.9,9.78
	c-10.9,4.25-22.96,8.84-33.14,9.9c9.39,10.32,15.32,23.67,13.38,44.78c0,0.03-0.01,0.06-0.01,0.1c3.94-0.05,7.86-0.29,11.72-0.89
	c22.24-3.42,39.65-13.26,53.31-25.61C938.65,508.86,931.5,494.28,918.45,487.12z"/>
<path class="st0" d="M863.07,506.63c-3.29,0.34-6.38,0.32-9.18-0.2c-16.07-3.03-37.34-19.47-56.23-32.16
	c-15.4-10.34-42.07-31.99-61.33-22.35c9,10.9,20.51,18.58,32.2,29.35c9.58,8.82,22.75,22.59,26.84,34.56
	c7.41,4.57,14.29,9.45,19.39,14.49c6.37,6.28,10.88,13.49,13.93,20.86c15.18-2.67,31.69,0.52,47.74,0.33c0-0.03,0.01-0.06,0.01-0.1
	C878.39,530.3,872.46,516.95,863.07,506.63z"/>
<path class="st0" d="M810,460.02c-3.8-1.25-8.1-2.93-12.63-4.88c8.19,10.95,21.98,17.69,32.09,25.27
	c11.75,8.81,24.36,16.04,33.62,26.22c10.18-1.06,22.24-5.65,33.14-9.9c7-2.73,14.49-5.91,21.9-9.78
	c-19.95-10.75-43.1-7.65-54.36-17.98C846.44,469.88,825.61,465.16,810,460.02z"/>
<path class="st0" d="M829.45,480.41c-10.11-7.58-23.9-14.32-32.09-25.27c-10.44-4.48-22.12-10.37-31.85-15.7
	c-15.75-8.63-29.81-18.38-43.58-20.43c1.08,9.96,4.91,20.23,11.91,29.75c0.8,1.09,1.63,2.13,2.48,3.16
	c19.26-9.63,45.93,12.01,61.33,22.35c18.89,12.69,40.17,29.13,56.23,32.16c2.79,0.53,5.89,0.55,9.18,0.2
	C853.81,496.45,841.2,489.22,829.45,480.41z"/>
<path class="st0" d="M445.95,431.74c7.35-6.33,15.11-4.77,22.2-2.62c-2.38-8.01-2.68-16.73,1.3-26.71
	c3.68-9.24,13.39-16.38,25.29-21.75c-0.28-0.25-0.58-0.5-0.88-0.73c-12.45-9.62-30.22,0.36-50.91,2.5
	c-13.44,15.77-27.44,35.9-30.3,59.45c11.57,6.69,21.12,21.31,34.08,28.42c2.58,1.41,5.67,2.73,9.13,3.83
	c-4-5.29-8.33-10.28-10.92-15.49C440.01,448.68,437.18,439.29,445.95,431.74z"/>
<path class="st0" d="M494.74,380.66c-11.9,5.37-21.6,12.51-25.29,21.75c-3.98,9.99-3.68,18.7-1.3,26.71
	c3.18,0.97,6.23,2.05,9.04,2.59c10.22,1.98,21.27,2.08,29.59,0.35C504.03,412.78,505.05,389.89,494.74,380.66z"/>
<path class="st0" d="M794.14,419.52c20.32,4.09,49.51-3.33,71.52,1.9c0.11,0.02,0.21,0.06,0.32,0.08
	c5.12-15.18,9.52-30.37,2.71-40.71c-14.19,3.65-29.98,10.41-42.23,15.61C815.29,401.15,800.82,407.39,794.14,419.52z"/>
<path class="st0" d="M771.84,400.23c3.48,11.87,11.68,17.15,22.3,19.29c6.68-12.13,21.15-18.37,32.31-23.12
	c12.26-5.21,28.04-11.96,42.23-15.61c-1.11-1.68-2.5-3.23-4.24-4.63c-10.32-8.3-35.01-5.21-50.59-2.11
	c-15.12,3.01-27.78,7.6-41.4,8.66C770.3,387.63,769.84,393.4,771.84,400.23z"/>
<path class="st0" d="M493.86,379.93c0.3,0.23,0.59,0.48,0.88,0.73c14.25-6.43,31.66-10.33,45.71-12.25
	c5.29-0.72,11.72-1.14,18.55-1.34c-12.46-9.47-30.33-9.55-44.33-12.59c-9.63-2.09-19.33-3.37-28.49-5.62
	c-2.23,0.3-4.32,0.73-6.24,1.3c-11.15,3.3-22.96,16.37-33.22,27.95c-1.24,1.4-2.5,2.85-3.76,4.33
	C463.64,380.29,481.41,370.31,493.86,379.93z"/>
<path class="st0" d="M494.74,380.66c10.32,9.23,9.29,32.12,12.05,51.41c0.56-0.12,1.11-0.24,1.65-0.38
	c21.31-5.31,43.17-24.32,62.67-30.63c1.75-6.49,1.63-13.52-1.82-21.01c-2.61-5.66-6.15-9.84-10.28-12.99
	c-6.83,0.2-13.26,0.62-18.55,1.34C526.4,370.32,508.99,374.23,494.74,380.66z"/>
<path class="st0" d="M859.88,464.01c-5.55-10.29,0.67-26.4,6.1-42.51c-0.11-0.03-0.21-0.06-0.32-0.08c-22-5.23-51.2,2.2-71.52-1.9
	c-2.31,4.2-3.7,9.09-3.69,14.88c0.01,8.46,2.73,15.14,6.91,20.73c4.54,1.95,8.84,3.63,12.63,4.88c15.61,5.14,36.45,9.87,53.76,8.95
	C862.23,467.58,860.93,465.96,859.88,464.01z"/>
<path class="st0" d="M738.42,376.31c-0.91,0.73-1.8,1.47-2.63,2.26c-10.43,9.9-15.55,24.78-13.86,40.44
	c13.77,2.05,27.83,11.8,43.58,20.43c9.72,5.33,21.41,11.22,31.85,15.7c-4.18-5.59-6.9-12.27-6.91-20.73
	c-0.01-5.79,1.38-10.69,3.69-14.88c-10.62-2.14-18.81-7.42-22.3-19.29c-2.01-6.83-1.55-12.6,0.61-17.52
	c-1.75,0.14-3.51,0.22-5.3,0.23C756.37,382.99,746.64,380.54,738.42,376.31z"/>
<path class="st0" d="M644.06,599.39c-5.03,9.27-11.88,16.73-18.6,21.97c7.81,4.42,18.46,18.68,20.19,30.22
	c10.89-2.6,21.3-6.75,30.27-12.39C664.72,626.27,656.57,610.08,644.06,599.39z"/>
<path class="st0" d="M625.46,621.36c-3.47,2.71-6.9,4.83-10.03,6.3c-14.65,6.88-34.16,5.15-46.36,12.53
	c1.93,1.46,3.95,2.84,6.1,4.13c18.34,11.05,45.65,13.19,70.48,7.26C643.92,640.03,633.27,625.78,625.46,621.36z"/>
<path class="st0" d="M703.89,602.26c-4.08-3.44-7.42-7.06-9.44-10.85c-7.67-14.44-8.11-41.32-10-64c-1.51-18.15-1.3-51.6-19.8-61.35
	c-2.65,13.8-1.3,27.5-2.19,43.28c-0.8,14.09-3.42,35.14-11.44,45.21c0.82,7.59,1.12,14.92,0.46,21.24
	c-0.91,8.76-3.66,16.68-7.41,23.6c12.5,10.69,20.66,26.88,31.86,39.8c0.96-0.6,1.9-1.22,2.83-1.86
	C694.54,626.43,701.33,614.65,703.89,602.26z"/>
<path class="st0" d="M703.14,555.74c-0.54-10.36-3.1-22.27-2.25-33.56c-3.8-12.15-7.26-28.28-9.56-41.62
	c-3-17.42-4.14-34.24-10.82-46.26c-6.79,7.1-12.11,16.41-14.95,27.6c-0.35,1.39-0.64,2.77-0.91,4.15
	c18.5,9.75,18.29,43.2,19.8,61.35c1.89,22.68,2.33,49.56,10,64c2.02,3.79,5.36,7.41,9.44,10.85
	C706.94,587.47,703.98,571.81,703.14,555.74z"/>
<path class="st0" d="M567.38,235.92c-12.46-6.39-25-9.82-35.03-6.54c-8.33,2.72-14.18,7.1-18.56,12.39c1.26,3.15,2.34,6.27,3.7,8.86
	c4.86,9.24,11.7,17.95,18.27,23.37C548.01,260.98,564.39,248.53,567.38,235.92z"/>
<path class="st0" d="M726.44,460.86c-7,10.07-6.04,19.69-1.16,29.21c14.21-3.8,29.11,3.74,40.43,9.54
	c8.91,4.57,19.77,10.1,29.67,16.21c-4.09-11.97-17.26-25.74-26.84-34.56c-11.69-10.77-23.2-18.45-32.2-29.35
	C732.74,453.72,729.4,456.6,726.44,460.86z"/>
<path class="st0" d="M603.95,262.1c-9.95-9.08-23.21-19.33-36.57-26.19c-2.99,12.61-19.37,25.06-31.62,38.08
	c0.42,0.35,0.85,0.69,1.27,1.01c17.65,13.46,46.56,18.61,63.61,30.14c5.5-2.81,10.27-7.21,13.57-14.01
	c2.46-5.06,3.49-9.94,3.52-14.66C612.9,270.96,608.14,265.93,603.95,262.1z"/>
<path class="st0" d="M721.94,419.01c-0.3-0.04-0.6-0.11-0.9-0.14c-14.47-1.8-29.45,3.86-40.52,15.44
	c6.68,12.02,7.82,28.84,10.82,46.26c2.3,13.33,5.76,29.47,9.56,41.62c0.71-9.48,3.83-18.53,12.58-25.86
	c3.82-3.19,7.79-5.18,11.81-6.25c-4.88-9.53-5.83-19.14,1.16-29.21c2.96-4.26,6.29-7.14,9.89-8.94c-0.85-1.03-1.68-2.07-2.48-3.16
	C726.84,439.24,723.01,428.97,721.94,419.01z"/>
<path class="st0" d="M463.66,487.29c-1.75-4.74-4.67-9.04-7.8-13.17c-3.47-1.11-6.56-2.42-9.13-3.83
	c-12.96-7.11-22.51-21.73-34.08-28.42c-0.71,5.83-0.74,11.87,0.09,18.1c3.03,22.67,20.38,47,42.57,62.69
	C462.84,512.69,466.39,494.69,463.66,487.29z"/>
<path class="st0" d="M587.59,481.16c7.05-10.39,17.1-22.76,25.78-32.61c11.76-13.35,24.22-24.85,29.34-37.68
	c-9.85-0.95-20.55,0.66-31.18,5.45c-1.19,0.54-2.35,1.11-3.5,1.71c6.6,21.05-20.49,43.3-33.88,56.51
	c-16.2,15.98-36.56,33.55-42.73,48.69c-1.09,2.67-1.73,5.75-2.05,9.11c11.86-7.04,21.49-18.01,32.49-27.8
	C569.87,497.41,577.81,487.55,587.59,481.16z"/>
<path class="st0" d="M650.45,463.41c-12.23,0.83-19.15,7.57-23.54,17.33c11.89,8.71,15.32,25.09,17.87,37.57
	c2.17,10.65,4.9,23.81,6.23,36.25c8.03-10.07,10.65-31.11,11.44-45.21c0.89-15.78-0.45-29.49,2.19-43.28
	C660.79,464.03,656.12,463.03,650.45,463.41z"/>
<path class="st0" d="M680.51,434.31c-0.25-0.46-0.5-0.92-0.77-1.36c-7.56-12.38-21.2-20.55-37.04-22.08
	c-5.11,12.84-17.58,24.34-29.34,37.68c-8.68,9.85-18.72,22.22-25.78,32.61c7.62-4.98,16.36-7.86,27.11-5.7
	c4.85,0.98,8.87,2.82,12.21,5.27c4.39-9.76,11.31-16.5,23.54-17.33c5.67-0.38,10.34,0.62,14.2,2.65c0.27-1.38,0.56-2.77,0.91-4.15
	C668.4,450.71,673.72,441.4,680.51,434.31z"/>
<path class="st0" d="M559,367.07c10.06-0.3,20.99-0.11,30.45,0.34c17.7,0.84,34.41,3.38,47.61-0.58
	c-5.44-8.21-13.38-15.48-23.72-20.73c-1.18-0.6-2.37-1.14-3.56-1.67c-12.44,18.03-46.53,10.84-65.14,8.65
	c-19.82-2.33-42.59-6.4-58.47-4.23c9.16,2.25,18.85,3.53,28.49,5.62C528.67,357.51,546.54,357.59,559,367.07z"/>
<path class="st0" d="M642.7,410.87c0.16-0.4,0.34-0.8,0.48-1.21c4.92-13.7,2.69-29.5-6.13-42.83c-13.2,3.96-29.9,1.42-47.61,0.58
	c-9.46-0.45-20.39-0.64-30.45-0.34c4.14,3.14,7.68,7.32,10.28,12.99c3.45,7.49,3.57,14.52,1.82,21.01
	c11.07-3.58,21.38-3.07,30.4,6.37c3.31,3.47,5.41,7.02,6.53,10.6c1.15-0.59,2.31-1.17,3.5-1.71
	C622.15,411.53,632.85,409.92,642.7,410.87z"/>
<path class="st0" d="M637.06,366.83c0.47-0.14,0.94-0.27,1.39-0.42c13.51-4.62,24.3-15.89,29.33-30.67
	c-11.86-7.46-20.75-22.23-31.67-36.65c-5.47-7.23-11.98-15.33-18.38-22.62c-0.04,4.72-1.07,9.6-3.52,14.66
	c-3.3,6.8-8.08,11.2-13.57,14.01c9.4,6.36,15.19,14.65,13.49,27.35c-0.65,4.86-2.17,8.79-4.35,11.94c1.19,0.52,2.38,1.07,3.56,1.67
	C623.68,351.35,631.62,358.62,637.06,366.83z"/>
<path class="st0" d="M735.79,378.57c0.83-0.79,1.72-1.53,2.63-2.26c-14.96-7.68-24.88-21.23-26.84-36.28
	c-0.06-0.47-0.09-0.95-0.13-1.43c-14.81,5.98-30.73,5-43.17-2.55c-0.17-0.1-0.33-0.22-0.5-0.32c-5.03,14.79-15.83,26.05-29.33,30.67
	c-0.46,0.16-0.93,0.28-1.39,0.42c8.82,13.32,11.05,29.13,6.13,42.83c-0.15,0.41-0.32,0.81-0.48,1.21
	c15.84,1.53,29.48,9.7,37.04,22.08c0.27,0.44,0.51,0.91,0.77,1.36c11.08-11.58,26.05-17.24,40.52-15.44c0.3,0.04,0.6,0.1,0.9,0.14
	C720.24,403.35,725.37,388.47,735.79,378.57z"/>
</svg>
